<?xml version="1.0" encoding="UTF-8"?>
<svg version="1.1" viewBox="0 0 1600 1600" width="1280" height="1280" xmlns="http://www.w3.org/2000/svg">
<path transform="translate(847,347)" d="m0 0h33l31 3 26 5 24 7 21 8 20 9 22 12 17 10v4l-11 16-14 20-11 16-16 23-6 9-4-2-15-10-21-11-24-8-21-4-11-1h-15l-13 3-9 6-4 5-2 5v14l4 8 7 6 14 7 25 8 35 10 20 7 20 9 16 8 18 10 14 10 10 9 6 5 9 11 9 14 7 17 3 12 2 17v17l-2 18-4 17-6 15-6 11-9 12-13 13-15 10-16 8-16 6-21 5-13 2-12 1h-26l-35-4-15-23-29-44-16-24 1-2 17 4 25 3 21 1h26l14-2 12-5 9-6 7-7 4-8 1-3v-10l-4-6-9-6-19-7-44-13-21-8-24-11-20-10-18-11-13-10-10-9-11-11-10-14-8-16-5-16-3-18v-23l3-22 6-21 10-21 10-14 12-13 13-10 14-8 14-6 17-5z" fill="#E6801F"/>
<path transform="translate(602,598)" d="m0 0h2l15 27 13 23 15 26 14 23 34 56 15 25 51 84 19 32 10 16 12 20 34 56 7 12v1h-72l-17-28-19-32-15-25-19-32-17-28-19-32-17-28-19-32-17-28-4-7-3 3-30 52-16 27-16 28-16 27-30 52-16 27-16 28-16 27-1 1h-76l2-5 14-25 14-24 195-338z" fill="#081E2E"/>
<path transform="translate(906,519)" d="m0 0 10 2 33 11 20 9 16 8 18 10 14 10 10 9 6 5 9 11 9 14 7 17 3 12 2 17v17l-2 18-4 17-6 15-6 11-9 12-13 13-15 10-16 8-16 6-21 5-13 2-12 1h-26l-35-4-15-23-29-44-16-24 1-2 17 4 25 3 21 1h26l14-2 12-5 9-6 7-7 4-8 1-3v-10l-4-6-9-6-19-7-1-2 6-1h2l-1-109-1-2-3-1v-2l-9-2z" fill="#E79622"/>
<path transform="translate(602,598)" d="m0 0h2l15 27 13 23 15 26 14 23 34 56 15 25 51 84 19 32 10 16 12 20 34 56 7 12v1h-72l-17-28-19-32-15-25-19-32-17-28-19-32-17-28-19-32-17-28-4-7-4 3-1-9-1-115h-2l-2 1 2-5z" fill="#0882B4"/>
<path transform="translate(739,787)" d="m0 0 16 1 103 12 3 1 16 25 15 23 16 25 16 24v3l-118-3-6-9-45-74-16-26z" fill="#05527A"/>
<path transform="translate(602,598)" d="m0 0h2l15 27 13 23 15 26 14 23 34 56 3 8 1 29v78l-3 3-5-5-17-29-17-28-19-32-17-28-13-22-4 3-1-9-1-115h-2l-2 1 2-5z" fill="#06628F"/>
<path transform="translate(668,671)" d="m0 0 14 1 50 7 2 1v-2l10 1 43 8 10 15 16 25 15 23 11 17 9 14v2l-44-4-83-8-2-2 1-11-15-25-28-46-9-15z" fill="#0B2D46"/>
<path transform="translate(817,915)" d="m0 0h39l79 2 7 9 10 16 15 23 22 34 3 6-9 1-79 2h-31l-6-9-45-74-5-8z" fill="#0B2D46"/>
<path transform="translate(907,350)" d="m0 0 16 2 25 6 27 9 20 9 16 8 22 12 9 6-2 5-8 11-16 23-11 16-16 23-6 9-4-2-15-10-21-11-24-8-5-2 1-2 6-1-1-98-5-1-1-1-7-1z" fill="#E79622"/>
<path transform="translate(882,803)" d="m0 0 112 13 13 20 33 51 10 15v2l-49-1-42-1-14-1-8-11-12-19-13-20-22-34-8-12z" fill="#05527A"/>
<path transform="translate(601,604)" d="m0 0 2 2 1 126-14 24-15 26-16 27-16 28-7 12-1-4-1-122-4 2 2-5 13-23 14-24 16-28 14-24 8-14z" fill="#063D5A"/>
<path transform="translate(956,918)" d="m0 0h21l79 2 6 1 44 68 8 12v1l-10 1-79 2h-13l-7-10-14-22-15-23-11-17-9-14z" fill="#05527A"/>
<path transform="translate(563,821)" d="m0 0h92l30 52 6 11h-164l2-5 16-28 15-26z" fill="#E6801F"/>
<path transform="translate(1016,819)" d="m0 0 21 2 77 9 4 1 29 44 20 30v2l-87-2-10-1-10-15-44-68z" fill="#06638F"/>
<path transform="translate(1082,921)" d="m0 0 56 1 39 1 5 5 16 24 29 44 1 3-3 1-79 2h-13l-14-22-15-23-22-34z" fill="#0A202F"/>
<path transform="translate(609,574)" d="m0 0 17 4 77 20 30 8 5 5 33 51 3 5v2l-52-7-63-9-4-2-31-51-15-24z" fill="#09202F"/>
<path transform="translate(809,692)" d="m0 0 24 5 19 2 21 1h47l1 1v83l-1 1h-5v2l-22 1-24-3-15-23-29-44-16-24z" fill="#E6801F"/>
<path transform="translate(602,598)" d="m0 0h2l15 27 13 23 15 26 2 3 1 5 1 76v30l-3 3-5-5-17-29-15-25-4-5-3 3-1-9-1-115h-2l-2 1 2-5z" fill="#055179"/>
<path transform="translate(695,755)" d="m0 0 3 3 12 20 34 56 2 12v101l-3 2-5-5-9-15-19-32-16-26 3-1 1-2v-78l-1-29z" fill="#0376A6"/>
<path transform="translate(803,794)" d="m0 0 38 4 17 2 3 1 16 25 15 23 16 25 16 24v3l-44-1-13-1-13-22-3-3-1-4-2-1-2-7h-2l-6-12-1-3h-2l-3-7-1-3h-2l-1-4-2-1-3-7-8-13v-2h-2l-1-4-2-1-1-4-2-1v-2h-2v-3z" fill="#0F92B1"/>
<path transform="translate(878,916)" d="m0 0h17l40 1 7 9 10 16 15 23 22 34 3 6-9 1-37 1h-17l-2-6-11-19-14-24-15-26-9-15z" fill="#063E5B"/>
<path transform="translate(759,614)" d="m0 0 8 1 93 25 9 3 11 17 16 25-3 1-92-13-5-1-12-19-15-23-10-15z" fill="#05527A"/>
<path transform="translate(1e3 919)" d="m0 0 54 1 6 1 44 68 8 12v1l-10 1-54 1v-1h10l-14-24-17-29-14-24-3-5-10-1z" fill="#0376A6"/>
<path transform="translate(944,811)" d="m0 0 16 1 34 4 13 20 33 51 10 15v2l-49-1-14-22-12-19-16-26-12-19z" fill="#0882B4"/>
<path transform="translate(1130,922)" d="m0 0 47 1 5 5 16 24 29 44 1 3-3 1-47 1 2-1-10-16-17-26-15-23-8-12z" fill="#063E5B"/>
<path transform="translate(1067,825)" d="m0 0 21 2 26 3 4 1 29 44 20 30v2l-47-1-5-5-12-20-12-19-15-24-7-11z" fill="#0881B4"/>
<path transform="translate(1198,1033)" d="m0 0h44l11 4 5 6 3 6 1 9-2 8-4 6-7 5 6 16 7 17v2h-20l-5-12-7-18-13-1v30l-1 1h-18zm19 14v20h18l6-4 1-2v-8l-4-5-3-1z" fill="#0B2F48"/>
<path transform="translate(532,723)" d="m0 0h2l1 2 1 120-3 9-14 24-9 15h-1l-1-125-4 2 2-5 13-23 10-17z" fill="#0B2C45"/>
<path transform="translate(675,591)" d="m0 0 43 11 17 5 7 10 14 22 15 23 3 5v2l-52-7-9-2-14-26-13-23-9-16z" fill="#055179"/>
<path transform="translate(1059,742)" d="m0 0 5 5 25 38 17 26v2l-70-8-31-4-7-10 3-3 29-14 12-9 9-10z" fill="#0881B3"/>
<path transform="translate(412,1033)" d="m0 0h35l11 3 10 9 6 9 3 11v14l-3 11-6 10-8 7-9 4-6 1h-33zm19 14-1 1v49h12l7-3 6-7 3-10v-10l-3-10-6-7-4-2z" fill="#0B2F48"/>
<path transform="translate(965,1031)" d="m0 0 12 1 10 5 7 8 5 11 2 8v17l-4 13-6 10-8 6-8 3h-16l-9-4-8-7-6-12-2-7-1-12 2-14 4-10 9-10 10-5zm1 15-7 3-4 6-2 9v17l3 10 5 6 2 1h9l6-5 3-8 1-16-2-13-4-6-3-3z" fill="#0D2F47"/>
<path transform="translate(628,821)" d="m0 0h27l30 52 6 11h-75l1-2h3v-2h2l-1-55-3-3z" fill="#E89723"/>
<path transform="translate(873,1031)" d="m0 0 13 1 9 4 7 6 3 5-1 4-12 4h-3l-4-6-4-2h-11l-4 4 1 6 6 3 19 5 8 5 6 7 2 7-1 10-4 8-9 8-10 3h-18l-11-4-7-6-5-10v-2l17-4 5 8 9 3 9-1 5-5-1-6-10-4-16-5-7-4-5-6-2-6v-9l4-10 8-7 7-3z" fill="#0D3048"/>
<path transform="translate(1125,1033)" d="m0 0h22l4 10 20 64 1 5h-20l-5-15v-2l-25 1-5 16h-16l1-7 21-65zm9 21-8 26v1h16l-1-7-6-20z" fill="#0C2F48"/>
<path transform="translate(731,1033)" d="m0 0h22l9 27 15 48v4h-19l-3-7-2-10h-26l-2 10-3 7h-16l3-11 20-62zm8 22-7 24v2h16l-2-10-5-16z" fill="#0C2F48"/>
<path transform="translate(339,1033)" d="m0 0h22l3 8 20 63 2 8h-20l-3-8-2-9-25 1-5 16h-16l1-7 18-56zm9 21-8 25v2h16l-1-7-6-20z" fill="#0C2F47"/>
<path transform="translate(668,671)" d="m0 0 14 1 50 7 2 1-3 22-9 58-3-4-42-69-9-15z" fill="#063E5C"/>
<path transform="translate(629,1033)" d="m0 0h21l12 22 3 6 10-19 5-9h16l-2 6-15 28-6 11-1 34h-18l-1-1-1-34-15-28-8-14z" fill="#0C3049"/>
<path transform="translate(551,1033)" d="m0 0h58v15l-1 1h-19v63h-18l-1-1v-62h-19z" fill="#0B314B"/>
<path transform="translate(817,629)" d="m0 0 17 4 33 9 4 4 16 25 9 14-3 1-50-7-1-5-14-26-10-17z" fill="#0882B4"/>
<path transform="translate(1031,1033)" d="m0 0h19v63h31v16h-50z" fill="#0A304A"/>
<path transform="translate(506,1033)" d="m0 0h19v79h-18l-1-1z" fill="#0A334E"/>
<path transform="translate(1033,772)" d="m0 0h3l13 20 2 1 2 4 2 1 4 9-15-1-34-4-6-2-6-10 16-8z" fill="#0C2230"/>
<path transform="translate(887,649)" d="m0 0 9 2 36 12v8l-4 6-8 6-10 3h-3l-16-29z" fill="#0D2331"/>
<path transform="translate(965,1135)" d="m0 0h10l8 28 1-28h7v39h-10l-3-8-6-21-1 29h-6z" fill="#0B3650"/>
<path transform="translate(908,1134)" d="m0 0h10l5 3 4 6 1 3v17l-3 7-4 4-3 1h-10l-6-4-3-6-1-4v-12l3-9 5-5zm4 6-4 2-3 9v7l3 9 4 2 5-1 3-4 1-3v-13l-3-6-3-2z" fill="#0A354F"/>
<path transform="translate(587,1134)" d="m0 0h10l5 3 4 6 1 3v17l-4 8-3 3-3 1h-10l-6-4-3-6-1-4v-13l3-8 5-5zm4 6-4 2-3 8v9l2 7 5 3 5-1 3-4 1-3v-13l-3-6-3-2z" fill="#0A354F"/>
<path transform="translate(707,1135)" d="m0 0h7l1 30 1 2 6 1 3-1 1-2 1-30h7v30l-3 7-5 3h-11l-6-4-2-6z" fill="#14394D"/>
<path transform="translate(523,1134)" d="m0 0h10l8 4-2 4-3 2-6-3-6 1v5l8 5 7 5 2 4v7l-4 5-5 2h-13l-5-2 1-7 9 2 8-1 1-4-3-3-11-6-3-4-1-7 2-5 3-3z" fill="#0B3752"/>
<path transform="translate(1037,1134)" d="m0 0h10l6 3 1 3-3 4-5-2-6-1-3 3 1 4 11 6 5 5 1 8-3 5-6 3h-13l-5-2 1-7 9 2 8-1v-6l-13-7-4-6v-7l5-6z" fill="#0B3751"/>
<path transform="translate(836,1135)" d="m0 0h25v6h-9v27h9v6h-25v-5l1-1h8v-27h-8l-1-1z" fill="#0B3A54"/>
<path transform="translate(770,1135)" d="m0 0h30v6h-12v33h-7v-33h-11z" fill="#0B3650"/>
<path transform="translate(643,1135)" d="m0 0h7v33h21v6h-28z" fill="#0B3852"/>
<path transform="translate(979,794)" d="m0 0h4l3 5v2l-16-1-7-1 4-2z" fill="#1A323C"/>
</svg>
